<?xml version="1.0" encoding="utf-8" ?>
<svg baseProfile="full" height="200mm" version="1.1" viewBox="0,0,200,200" width="200mm" xmlns="http://www.w3.org/2000/svg" xmlns:ev="http://www.w3.org/2001/xml-events" xmlns:xlink="http://www.w3.org/1999/xlink"><defs /><rect fill="#1a1a1a" height="200" width="200" x="0" y="0" /><rect fill="#1a1a1a" height="200" width="180" x="10" y="0" /><text alignment-baseline="middle" fill="#e1ed5e" style="dominant-baseline: central; font-size:9.0px; font-family:Arial;" text-anchor="middle" x="100.0" y="100.0">2026</text><line stroke="#e1ed5e" stroke-width="0.3" x1="100.0" x2="100.0" y1="15.0" y2="10.0" /><path d="M 100.0 14.0 a86.0,86.0 0 0,1 42.46469731375804,11.215312516191453" fill="none" id="id61" stroke="none" /><text fill="#e1ed5e" style="font-size:6.75px; font-family:Arial;" text-anchor="middle"><textPath startOffset="22.20632615414155" xlink:href="#id61">January</textPath></text><path d="M 100.36148047927253 79.00311137660856 l 0.8083836071773939 -46.955621501437754 a67.96257951436054,67.96257951436054 0 0,0 1.1695174304733722,0.030205184816616066 l -1.616527672845634 46.934749524478775" fill="red" stroke="none" /><path d="M 102.88285421437855 79.19881850522331 l 2.557324865437187 -18.452330472261252 a39.62869856766501,39.62869856766501 0 0,0 0.6748786606209288,0.0994595714303931 l -2.8745725064867718 18.40557641666989" fill="red" stroke="none" /><path d="M 105.36241919743992 79.69619591428918 l 3.522813378944199 -13.338478407423178 a34.795840689431095,34.795840689431095 0 0,0 0.5777801473638148,0.15792914004604197 l -3.7518914155317247 13.275862726550843" fill="red" stroke="none" /><path d="M 106.0581310904928 79.89281104454417 l 2.4970379698757856 -8.287772836086996 a29.65577132354956,29.65577132354956 0 0,0 0.48750504973501574,0.15147019200565429 l -2.6393283923215196 8.24356250919882" fill="red" stroke="none" /><path d="M 106.74666289553966 80.11325718540242 l 2.7230672124294166 -8.02662563090984 a29.47595505310091,29.47595505310091 0 0,0 0.479079709859306,0.16714150379321982 l -2.860828926351996 7.9785632739444114" fill="red" stroke="none" /><path d="M 107.4271985657038 80.35727306442388 l 8.905047430119852 -23.551196789852174 a46.17853728807588,46.17853728807588 0 0,0 0.7410925943701044,0.28753241305135063 l -9.309123189489624 23.394421672910276" fill="red" stroke="none" /><path d="M 107.76421540070413 80.48803036053334 l 7.202485369605421 -18.100306161997864 a40.48067962514239,40.48067962514239 0 0,0 0.6452160209790413,0.2631998153668276 l -7.51298526017285 17.973645460447457" fill="red" stroke="none" /><path d="M 108.09893153111575 80.62456947434976 l 2.935215641525431 -7.0220456268437 a28.610822271458602,28.610822271458602 0 0,0 0.4527543306562038,0.19384577610265843 l -3.05565372997195 6.970480322778251" fill="red" stroke="none" /><path d="M 108.76106565485865 80.91482961587045 l 6.5276609389018 -14.219904990630726 a36.64659884050936,36.64659884050936 0 0,0 0.571026934398931,0.26810480233554784 l -6.771466084600329 14.105435205655175" fill="red" stroke="none" /><path d="M 110.36928655335952 81.73862282372117 l 4.184516128267105 -7.369362098856266 a29.474530840806867,29.474530840806867 0 0,0 0.4390347407645639,0.2543172595825225 l -4.310747601496997 7.296240681883694" fill="red" stroke="none" /><line stroke="#e1ed5e" stroke-width="0.3" x1="143.23703022742887" x2="145.7803849466894" y1="26.81831364943548" y2="22.513508569990506" /><path d="M 143.74570117128098 25.957352633546492 a86.0,86.0 0 0,1 28.547481713284135,27.462654790039103" fill="none" id="id62" stroke="none" /><text fill="#e1ed5e" style="font-size:6.75px; font-family:Arial;" text-anchor="middle"><textPath startOffset="19.985693538727396" xlink:href="#id62">February</textPath></text><path d="M 110.68208982089419 81.91981866633111 l 5.691845904072848 -9.633845791826817 a32.1896422881346,32.1896422881346 0 0,0 0.47462544415673125,0.285956519484089 l -5.856833414447217 9.534442662884112" fill="red" stroke="none" /><path d="M 112.48926042617603 83.11751280151076 l 9.310333988987397 -12.585340446044732 a36.654811181529574,36.654811181529574 0 0,0 0.5040103672346141,0.379610159370393 l -9.525590509980393 12.423213697168492" fill="red" stroke="none" /><path d="M 112.77801427241765 83.33499621200491 l 14.096808159741041 -18.38496626880635 a44.167368970120215,44.167368970120215 0 0,0 0.5993458228926581,0.46779892143363466 l -14.411186537793128 18.139588958149496" fill="red" stroke="none" /><path d="M 114.68862486808459 84.99185889309783 l 5.907185715676536 -6.035682547668684 a29.44537192169328,29.44537192169328 0 0,0 0.3591833398617213,0.35764089245226555 l -6.010204855705579 5.9331058045663" fill="red" stroke="none" /><path d="M 115.19652480421416 85.50635884689758 l 24.643399337179368 -23.503570150896067 a55.05458766054561,55.05458766054561 0 0,0 0.6481568164346951,0.6914085003454258 l -25.044323475584527 23.075892233672587" fill="red" stroke="none" /><path d="M 115.9244219780498 86.31012108654704 l 25.899746808963194 -22.265448516280635 a55.15475197391342,55.15475197391342 0 0,0 0.6127151548221177,0.7252614830010743 l -26.279172577272426 21.816328083650454" fill="red" stroke="none" /><path d="M 116.60985879189232 87.15038557335679 l 17.027529120919922 -13.172729918032793 a42.5280645079211,42.5280645079211 0 0,0 0.442948139218252,0.5828678294139606 l -17.251753200362288 12.877677312737799" fill="red" stroke="none" /><path d="M 117.2510076193507 88.02491185347247 l 49.00130713194099 -34.015112922554465 a80.65028086918738,80.65028086918738 0 0,0 0.7818297153291215,1.1472386345257417 l -49.57956131293884 33.16659626475832" fill="red" stroke="none" /><line stroke="#e1ed5e" stroke-width="0.3" x1="172.23445277983987" x2="176.4835382374775" y1="55.19839476539836" y2="52.563006222186495" /><path d="M 173.08426987136738 54.67131705675599 a86.0,86.0 0 0,1 12.851231095245387,41.99856678651699" fill="none" id="id63" stroke="none" /><text fill="#e1ed5e" style="font-size:6.75px; font-family:Arial;" text-anchor="middle"><textPath startOffset="22.20632615414155" xlink:href="#id63">March</textPath></text><path d="M 117.84615892207809 88.93136811851018 l 30.40272815193581 -18.856528599578294 a56.77561389979527,56.77561389979527 0 0,0 0.507963852112981,0.8349590127718453 l -30.722807802335016 18.330401813599366" fill="red" stroke="none" /><path d="M 118.56541770881063 90.18545643968196 l 17.677834617066903 -9.345325843057287 a40.996023401198634,40.996023401198634 0 0,0 0.3244358270107779,0.6267067519351427 l -17.8360798772378 9.0396463688618" fill="red" stroke="none" /><path d="M 118.73160827565052 90.50648371742162 l 21.594547701829928 -10.944505522717513 a45.20964046786739,45.20964046786739 0 0,0 0.3458321932923473,0.6971765987108907 l -21.779739908075683 10.571169335507673" fill="red" stroke="none" /><path d="M 119.04729006885535 91.15688171328212 l 23.82421158224068 -11.060907895451047 a47.266646930794614,47.266646930794614 0 0,0 0.3362632160177258,0.7409114231166881 l -24.011077115221752 10.649174463492296" fill="red" stroke="none" /><path d="M 119.34039704204932 91.81776055985345 l 27.919542177624237 -11.811772977561679 a51.315323126788456,51.315323126788456 0 0,0 0.33716198675828446,0.816464494384083 l -28.11872585126872 11.329433912724292" fill="red" stroke="none" /><path d="M 119.47837535516314 92.15188598940014 l 33.47460454140956 -13.487393486905397 a57.08959590067996,57.08959590067996 0 0,0 0.3594101339389107,0.9146595881372057 l -33.701808225230174 12.909184893872405" fill="red" stroke="none" /><path d="M 119.61058180528143 92.48833698450437 l 41.44801759348216 -15.876303105842721 a65.38462754984205,65.38462754984205 0 0,0 0.3935389002300122,1.0544885973850446 l -41.7151610822138 15.160491371428344" fill="red" stroke="none" /><path d="M 119.7369772167798 92.82701384747503 l 33.92712123173735 -12.330093312535787 a57.09820987485173,57.09820987485173 0 0,0 0.3277625376994422,0.9266288310543231 l -34.134336850246605 11.74426685505485" fill="red" stroke="none" /><path d="M 119.85752413597 93.16781622104841 l 27.96513079228461 -9.621688568375665 a50.57406686839664,50.57406686839664 0 0,0 0.2761409224808486,0.8256262103377059 l -28.12660900853723 9.138889255115645" fill="red" stroke="none" /><path d="M 120.28053869075195 94.5502522615342 l 7.5745949027881005 -2.0354307186173397 a28.843307092778822,28.843307092778822 0 0,0 0.12471800404836346,0.4805893452740717 l -7.608509238706767 1.9047449477944176" fill="red" stroke="none" /><path d="M 120.53481517161879 95.60439243477599 l 7.415924354167348 -1.5874256925068453 a28.58392077727367,28.58392077727367 0 0,0 0.09884687868359823,0.4820124852156694 l -7.442150528765944 1.459537551127764" fill="red" stroke="none" /><path d="M 120.6074358757038 95.95851677861258 l 7.10320457651968 -1.393064245704283 a28.23851802847446,28.23851802847446 0 0,0 0.08944117069154124,0.47779831026122027 l -7.126131471121081 1.2705878579805" fill="red" stroke="none" /><line stroke="#e1ed5e" stroke-width="0.3" x1="184.98032266829074" x2="189.97916517819016" y1="98.17113171792111" y2="98.06355123074" /><path d="M 185.9800911702706 98.14961562048488 a86.0,86.0 0 0,1 -9.607161424134198,41.387399972396054" fill="none" id="id64" stroke="none" /><text fill="#e1ed5e" style="font-size:6.75px; font-family:Arial;" text-anchor="middle"><textPath startOffset="21.466115282336823" xlink:href="#id64">April</textPath></text><path d="M 120.99513854157772 99.54816195383933 l 12.664338462428224 -0.27255023516272325 a33.667270910564206,33.667270910564206 0 0,0 0.007482138747883115,0.5794998916297462 l -12.667153608293823 0.05451408547251432" fill="red" stroke="none" /><path d="M 120.9904718944345 100.63252640178507 l 62.97141568330351 1.8975792053552112 a84.0,84.0 0 0,0 -0.05599146859518722,1.4448910119439753 l -62.92942208185712 -2.9812474643131925" fill="red" stroke="none" /><path d="M 120.9764740272857 100.99374915477107 l 27.663846779532438 1.3105598357053256 a48.6948729140325,48.6948729140325 0 0,0 -0.04687147974574317,0.836921757339354 l -27.637188948899166 -1.786553309380103" fill="red" stroke="none" /><path d="M 120.76222939487914 103.15116336523771 l 21.644657147556025 3.2850928173123566 a42.89253338135185,42.89253338135185 0 0,0 -0.11707260782947436,0.7290112407086679 l -21.58490278536526 -3.657183287714229" fill="red" stroke="none" /><path d="M 120.70491114924044 103.5080841355445 l 7.782151654411622 1.318549138533459 a28.893063803301533,28.893063803301533 0 0,0 -0.08730322333525206,0.48964284006970377 l -7.758301988737181 -1.452310729336381" fill="red" stroke="none" /><path d="M 120.32669344350535 105.2749913415812 l 8.390117948323608 2.177324101200192 a29.668034346289197,29.668034346289197 0 0,0 -0.13253406538969587,0.4932085611975621 l -8.351395806592135 -2.321423595573302" fill="red" stroke="none" /><path d="M 120.13307415673323 105.97154293290107 l 11.843489592176404 3.5128220372344794 a33.35346770689392,33.35346770689392 0 0,0 -0.1679954251176499,0.5490187694347247 l -11.781267394552621 -3.7161677792212613" fill="red" stroke="none" /><path d="M 119.41010516605496 108.01547362559984 l 40.060144651666775 16.54298264466395 a64.34149817777552,64.34149817777552 0 0,0 -0.43154461366459645,1.0200439904850283 l -39.76944905680987 -17.230101160815142" fill="red" stroke="none" /><line stroke="#e1ed5e" stroke-width="0.3" x1="174.80103733775053" x2="179.2010983576182" y1="140.37084112569926" y2="142.7455964860345" /><path d="M 175.68104954172406 140.8457921977663 a86.0,86.0 0 0,1 -30.038265399797805,32.042727171017184" fill="none" id="id65" stroke="none" /><text fill="#e1ed5e" style="font-size:6.75px; font-family:Arial;" text-anchor="middle"><textPath startOffset="22.206326154141568" xlink:href="#id65">May</textPath></text><line stroke="#e1ed5e" stroke-width="0.3" x1="143.8653032363475" x2="146.44561519142675" y1="172.8068346515853" y2="177.08958963109032" /><path d="M 144.38136562736335 173.6633856474863 a86.0,86.0 0 0,1 -40.68145358897372,12.25698825130547" fill="none" id="id66" stroke="none" /><text fill="#e1ed5e" style="font-size:6.75px; font-family:Arial;" text-anchor="middle"><textPath startOffset="21.466115282336833" xlink:href="#id66">June</textPath></text><line stroke="#e1ed5e" stroke-width="0.3" x1="102.19456741930631" x2="102.32365962044197" y1="184.97166512339345" y2="189.96999836594603" /><path d="M 102.22038585953345 185.97133177190398 a86.0,86.0 0 0,1 -42.740103519485714,-10.115201625700543" fill="none" id="id67" stroke="none" /><text fill="#e1ed5e" style="font-size:6.75px; font-family:Arial;" text-anchor="middle"><textPath startOffset="22.20632615414155" xlink:href="#id67">July</textPath></text><line stroke="#e1ed5e" stroke-width="0.3" x1="58.666819895761336" x2="56.23545636021788" y1="174.27360380694188" y2="178.64263932499728" /><path d="M 58.180547188652646 175.14741091055294 a86.0,86.0 0 0,1 -31.652253787137756,-30.449443065178592" fill="none" id="id68" stroke="none" /><text fill="#e1ed5e" style="font-size:6.75px; font-family:Arial;" text-anchor="middle"><textPath startOffset="22.20632615414155" xlink:href="#id68">August</textPath></text><line stroke="#e1ed5e" stroke-width="0.3" x1="26.63291911575756" x2="22.317208475507996" y1="142.92168965132927" y2="145.44649492493687" /><path d="M 25.769776987707644 143.4266507060508 a86.0,86.0 0 0,1 -11.730757126820373,-40.83630448921669" fill="none" id="id69" stroke="none" /><text fill="#e1ed5e" style="font-size:6.75px; font-family:Arial;" text-anchor="middle"><textPath startOffset="21.46611528233685" xlink:href="#id69">September</textPath></text><line stroke="#e1ed5e" stroke-width="0.3" x1="15.007084014347285" x2="10.007500721073583" y1="101.09737516637583" y2="101.16192664675087" /><path d="M 14.007167355692545 101.11028546245083 a86.0,86.0 0 0,1 10.666146001902534,-42.60595125391555" fill="none" id="id70" stroke="none" /><text fill="#e1ed5e" style="font-size:6.75px; font-family:Arial;" text-anchor="middle"><textPath startOffset="22.20632615414155" xlink:href="#id70">October</textPath></text><line stroke="#e1ed5e" stroke-width="0.3" x1="26.266209847984243" x2="21.928928074336255" y1="57.711370442889674" y2="55.22380399835377" /><path d="M 25.398753493254645 57.213857153982495 a86.0,86.0 0 0,1 29.58750427330803,-30.492523968695096" fill="none" id="id71" stroke="none" /><text fill="#e1ed5e" style="font-size:6.75px; font-family:Arial;" text-anchor="middle"><textPath startOffset="21.46611528233685" xlink:href="#id71">November</textPath></text><line stroke="#e1ed5e" stroke-width="0.3" x1="56.762969772571076" x2="54.21961505331055" y1="26.818313649435495" y2="22.513508569990535" /><path d="M 56.25429882871897 25.957352633546506 a86.0,86.0 0 0,1 42.265352541879196,-11.944610805530505" fill="none" id="id72" stroke="none" /><text fill="#e1ed5e" style="font-size:6.75px; font-family:Arial;" text-anchor="middle"><textPath startOffset="22.20632615414155" xlink:href="#id72">December</textPath></text></svg>